<svg width="242" height="217" viewBox="0 0 242 217" fill="none" xmlns="http://www.w3.org/2000/svg">
<path d="M150.455 124.955C146.939 124.955 143.848 123.924 141.182 121.864C138.545 119.803 136.485 116.636 135 112.364L118.273 64.5455L115 56.9091L112.273 49.8182C111.03 46.6061 109.697 44.197 108.273 42.5909C106.879 40.9848 105.182 40.0303 103.182 39.7273C101.182 39.4242 98.697 39.6364 95.7273 40.3636L93 30.9091C93.5455 30.6667 94.5303 30.3939 95.9545 30.0909C97.3788 29.7879 99 29.6364 100.818 29.6364C105.818 29.6364 110 30.9394 113.364 33.5454C116.727 36.1515 119.394 40.1212 121.364 45.4545L145.182 109.818C145.606 111 146.167 112.182 146.864 113.364C147.561 114.515 148.818 115.091 150.636 115.091C151 115.091 151.439 115.061 151.955 115C152.5 114.939 152.909 114.909 153.182 114.909L155.545 124.364C154.667 124.576 153.788 124.727 152.909 124.818C152.061 124.939 151.242 124.985 150.455 124.955ZM89.3636 124L116.636 50L121 70.3636H119.545L101 124H89.3636Z" fill="#020617"/>
<path d="M73.5227 183V153.909H77.0455V179.875H90.5682V183H73.5227ZM99.0518 183H95.3587L106.04 153.909H109.677L120.359 183H116.665L107.972 158.511H107.745L99.0518 183ZM100.415 171.636H115.302V174.761H100.415V171.636ZM124.89 183V153.909H135.06C137.087 153.909 138.758 154.259 140.075 154.96C141.391 155.652 142.371 156.584 143.015 157.759C143.659 158.923 143.981 160.216 143.981 161.636C143.981 162.886 143.758 163.919 143.313 164.733C142.878 165.547 142.3 166.191 141.58 166.665C140.87 167.138 140.098 167.489 139.265 167.716V168C140.155 168.057 141.05 168.369 141.95 168.938C142.849 169.506 143.602 170.32 144.208 171.381C144.814 172.441 145.117 173.739 145.117 175.273C145.117 176.731 144.786 178.043 144.123 179.207C143.46 180.372 142.414 181.295 140.984 181.977C139.554 182.659 137.693 183 135.401 183H124.89ZM128.413 179.875H135.401C137.702 179.875 139.336 179.43 140.302 178.54C141.277 177.64 141.765 176.551 141.765 175.273C141.765 174.288 141.514 173.379 141.012 172.545C140.51 171.703 139.795 171.03 138.867 170.528C137.939 170.017 136.841 169.761 135.572 169.761H128.413V179.875ZM128.413 166.693H134.947C136.007 166.693 136.964 166.485 137.816 166.068C138.678 165.652 139.36 165.064 139.862 164.307C140.373 163.549 140.629 162.659 140.629 161.636C140.629 160.358 140.183 159.274 139.293 158.384C138.403 157.484 136.992 157.034 135.06 157.034H128.413V166.693ZM166.815 161.182C166.644 159.742 165.953 158.625 164.741 157.83C163.529 157.034 162.042 156.636 160.281 156.636C158.993 156.636 157.866 156.845 156.9 157.261C155.943 157.678 155.195 158.251 154.656 158.98C154.125 159.709 153.86 160.538 153.86 161.466C153.86 162.242 154.045 162.91 154.414 163.469C154.793 164.018 155.276 164.477 155.863 164.847C156.45 165.206 157.066 165.505 157.71 165.741C158.353 165.969 158.945 166.153 159.485 166.295L162.44 167.091C163.197 167.29 164.04 167.564 164.968 167.915C165.906 168.265 166.8 168.743 167.653 169.349C168.514 169.946 169.225 170.713 169.783 171.651C170.342 172.588 170.621 173.739 170.621 175.102C170.621 176.674 170.21 178.095 169.386 179.364C168.571 180.633 167.378 181.641 165.806 182.389C164.244 183.137 162.345 183.511 160.11 183.511C158.027 183.511 156.223 183.175 154.698 182.503C153.183 181.83 151.99 180.893 151.119 179.69C150.257 178.488 149.769 177.091 149.656 175.5H153.292C153.387 176.598 153.756 177.508 154.4 178.227C155.053 178.937 155.877 179.468 156.871 179.818C157.875 180.159 158.955 180.33 160.11 180.33C161.455 180.33 162.662 180.112 163.732 179.676C164.802 179.231 165.65 178.616 166.275 177.83C166.9 177.034 167.212 176.106 167.212 175.045C167.212 174.08 166.942 173.294 166.403 172.688C165.863 172.081 165.153 171.589 164.272 171.21C163.391 170.831 162.44 170.5 161.417 170.216L157.837 169.193C155.565 168.54 153.765 167.607 152.44 166.395C151.114 165.183 150.451 163.597 150.451 161.636C150.451 160.008 150.891 158.587 151.772 157.375C152.662 156.153 153.855 155.206 155.352 154.534C156.857 153.852 158.538 153.511 160.394 153.511C162.269 153.511 163.936 153.848 165.394 154.52C166.853 155.183 168.008 156.092 168.86 157.247C169.722 158.402 170.176 159.714 170.224 161.182H166.815Z" fill="#020617"/>
</svg>
