<?xml version="1.0" standalone="no"?>
<!DOCTYPE svg PUBLIC "-//W3C//DTD SVG 20010904//EN"
 "http://www.w3.org/TR/2001/REC-SVG-20010904/DTD/svg10.dtd">
<svg version="1.0" xmlns="http://www.w3.org/2000/svg"
 width="968.000000pt" height="868.000000pt" viewBox="0 0 968.000000 868.000000"
 preserveAspectRatio="xMidYMid meet">

<g transform="translate(0.000000,868.000000) scale(0.100000,-0.100000)"
fill="#000000" stroke="none">
<path d="M940 8665 c-471 -75 -854 -460 -925 -932 -22 -146 -22 -6639 0 -6783
62 -413 356 -760 757 -895 176 -58 -67 -55 4068 -55 3256 0 3808 2 3890 15
479 72 863 455 935 932 22 146 22 6639 0 6783 -72 479 -455 863 -932 935 -85
13 -603 15 -3903 14 -3133 -1 -3820 -3 -3890 -14z m3285 -1190 c250 -48 438
-204 566 -470 27 -55 272 -703 544 -1440 273 -737 509 -1362 524 -1390 44 -77
66 -89 176 -93 l93 -4 46 -185 c26 -102 45 -187 43 -189 -2 -2 -46 -9 -99 -16
-295 -37 -529 93 -662 366 -24 50 -178 477 -343 949 -258 742 -300 857 -317
855 -15 -3 -85 -197 -386 -1068 l-368 -1065 -232 -3 c-218 -2 -232 -1 -228 15
3 10 229 625 502 1366 l497 1348 -52 137 c-111 291 -199 422 -321 477 -54 24
-75 28 -158 28 -52 0 -121 -6 -154 -13 -32 -6 -62 -8 -66 -3 -4 4 -29 82 -54
173 -26 91 -49 172 -52 181 -4 13 10 20 66 34 139 34 293 37 435 10z m2297
-4946 c152 -32 259 -131 283 -261 l7 -38 -71 0 c-57 0 -71 3 -71 15 0 29 -38
90 -69 113 -51 37 -107 52 -195 52 -157 -1 -246 -70 -246 -194 0 -100 63 -146
285 -206 151 -41 231 -77 289 -130 64 -60 88 -114 88 -203 0 -114 -46 -201
-136 -260 -74 -49 -138 -68 -251 -74 -162 -9 -283 33 -368 127 -44 49 -77 120
-77 167 0 22 3 23 70 23 l69 0 11 -39 c14 -53 39 -82 102 -116 50 -28 60 -30
163 -30 100 0 115 2 161 27 119 63 158 184 87 268 -36 44 -101 73 -249 115
-71 21 -161 52 -200 70 -86 42 -157 113 -174 176 -17 61 -8 165 19 217 73 144
277 222 473 181z m-3442 -524 l0 -515 270 0 270 0 0 -65 0 -65 -340 0 -340 0
0 580 0 580 70 0 70 0 0 -515z m1315 498 c20 -53 408 -1111 412 -1125 5 -16
-3 -18 -68 -18 l-74 0 -27 78 c-14 42 -41 116 -58 165 l-32 87 -235 -2 -236
-3 -56 -160 -57 -160 -72 -3 c-40 -2 -72 1 -72 5 0 5 92 261 205 568 113 308
207 566 210 573 3 8 28 12 79 12 61 0 75 -3 81 -17z m1197 -16 c95 -47 154
-133 165 -242 12 -117 -39 -212 -139 -255 l-53 -23 49 -17 c113 -38 187 -143
188 -267 1 -119 -30 -188 -110 -250 -79 -60 -116 -66 -424 -71 l-278 -3 0 581
0 581 273 -3 272 -3 57 -28z"/>
<path d="M4305 2329 c-75 -211 -175 -496 -175 -501 0 -5 83 -8 185 -8 102 0
185 2 185 4 0 9 -180 509 -185 514 -2 3 -7 -1 -10 -9z"/>
<path d="M5140 2204 l0 -196 163 4 c147 3 167 5 211 27 69 34 106 95 106 174
0 64 -9 87 -48 130 -42 44 -105 57 -279 57 l-153 0 0 -196z"/>
<path d="M5140 1691 l0 -201 184 0 c232 0 283 16 326 100 49 97 4 215 -105
273 -36 20 -58 22 -222 25 l-183 4 0 -201z"/>
</g>
</svg>
